# xmcd
#
# Track frame offsets:
#	150
#	17760
#	37973
#	51694
#	73442
#	88477
#	102899
#	120185
#	138852
#	145615
#	166290
#	184392
#
# Disc length: 2601 seconds
#
# Revision: 1
# Processed by: cddbd v1.5.2PL0 Copyright (c) Steve Scherf et al.
# Submitted via: audiograbber 1.83.01
#
DISCID=ac0a270c
DTITLE=Roger Hurricane Wilson - The way I am
DYEAR=2006
DGENRE=Blues
TTITLE0=How much is enough
TTITLE1=Don't think twice
TTITLE2=Blue heaven
TTITLE3=My heart can't stand one more goodbye
TTITLE4=I got chased by a three legged dog
TTITLE5=Sandy Hook
TTITLE6=The drive-in Picture Show
TTITLE7=Ring of fire
TTITLE8=Doc's guitar
TTITLE9=The way I am
TTITLE10=I don't wanna come back
TTITLE11=Key Sunset
EXTD=
EXTT0=
EXTT1=
EXTT2=
EXTT3=
EXTT4=
EXTT5=
EXTT6=
EXTT7=
EXTT8=
EXTT9=
EXTT10=
EXTT11=
PLAYORDER=
